<svg width="24" height="24" viewBox="0 0 24 24" fill="none" xmlns="http://www.w3.org/2000/svg">
<path d="M13 6.5H16L19 10H16L13 6.5Z" fill="white"/>
<path d="M17.019 5C17.6154 5 18.1811 5.26589 18.561 5.72559L20.5347 8.11426C21.1792 8.89431 21.1391 10.0332 20.4419 10.7666L13.1138 18.4756C12.3254 19.3049 11.0028 19.3048 10.2144 18.4756L2.88623 10.7666C2.18896 10.0332 2.14876 8.8943 2.79346 8.11426L4.76807 5.72559C5.14801 5.26595 5.71371 5 6.31006 5H17.019ZM11.9995 10V18L15.9995 10H11.9995ZM4.49951 9.5H8.99951L11.4995 6.5H6.99951L4.49951 9.5Z" fill="#555555"/>
</svg>
