<svg width="24" height="24" viewBox="0 0 24 24" fill="none" xmlns="http://www.w3.org/2000/svg">
<path d="M14.7998 2C15.9199 2 16.4804 1.99979 16.9082 2.21777C17.2845 2.40951 17.5905 2.71554 17.7822 3.0918C18.0002 3.51962 18 4.08009 18 5.2002V18.7998C18 19.9199 18.0002 20.4804 17.7822 20.9082C17.5905 21.2845 17.2845 21.5905 16.9082 21.7822C16.4804 22.0002 15.9199 22 14.7998 22H9.2002C8.08009 22 7.51962 22.0002 7.0918 21.7822C6.71554 21.5905 6.40951 21.2845 6.21777 20.9082C5.99979 20.4804 6 19.9199 6 18.7998V5.2002C6 4.08009 5.99979 3.51962 6.21777 3.0918C6.40951 2.71554 6.71554 2.40951 7.0918 2.21777C7.51962 1.99979 8.08009 2 9.2002 2H14.7998ZM12 18C11.4477 18 11 18.4477 11 19C11 19.5523 11.4477 20 12 20C12.5523 20 13 19.5523 13 19C13 18.4477 12.5523 18 12 18Z" fill="#555555"/>
</svg>
