<svg width="24" height="24" viewBox="0 0 24 24" fill="none" xmlns="http://www.w3.org/2000/svg">
<path d="M11.7959 5C15.5247 5.00005 18.8412 6.96028 20.9551 10.0029C21.7887 11.2029 21.7887 12.7971 20.9551 13.9971C18.8412 17.0397 15.5247 19 11.7959 19C8.06717 18.9999 4.7504 17.0397 2.63672 13.9971C1.80329 12.7972 1.80329 11.2028 2.63672 10.0029C4.7504 6.96029 8.06717 5.00011 11.7959 5ZM12 7C9.23862 7.00006 7 9.23861 7 12C7 14.7614 9.23862 16.9999 12 17C14.7614 17 17 14.7614 17 12C17 9.23858 14.7614 7 12 7Z" fill="#555555"/>
<path d="M12 9L12.3486 9.91538C12.6531 10.7152 13.2848 11.3469 14.0846 11.6514L15 12L14.0846 12.3486C13.2848 12.6531 12.6531 13.2848 12.3486 14.0846L12 15L11.6514 14.0846C11.3469 13.2848 10.7152 12.6531 9.91538 12.3486L9 12L9.91538 11.6514C10.7152 11.3469 11.3469 10.7152 11.6514 9.91538L12 9Z" fill="#555555"/>
</svg>
