<svg width="24" height="24" viewBox="0 0 24 24" fill="none" xmlns="http://www.w3.org/2000/svg">
<path d="M17.7998 3C18.9199 3 19.4804 2.99979 19.9082 3.21777C20.2845 3.40951 20.5905 3.71554 20.7822 4.0918C21.0002 4.51962 21 5.08009 21 6.2002V17.7998C21 18.9199 21.0002 19.4804 20.7822 19.9082C20.5905 20.2845 20.2845 20.5905 19.9082 20.7822C19.4804 21.0002 18.9199 21 17.7998 21H6.2002C5.08009 21 4.51962 21.0002 4.0918 20.7822C3.71554 20.5905 3.40951 20.2845 3.21777 19.9082C2.99979 19.4804 3 18.9199 3 17.7998V6.2002C3 5.08009 2.99979 4.51962 3.21777 4.0918C3.40951 3.71554 3.71554 3.40951 4.0918 3.21777C4.51962 2.99979 5.08009 3 6.2002 3H17.7998ZM6 5C5.44772 5 5 5.44772 5 6C5 6.55228 5.44772 7 6 7C6.55228 7 7 6.55228 7 6C7 5.44772 6.55228 5 6 5ZM9 5C8.44772 5 8 5.44772 8 6C8 6.55228 8.44772 7 9 7C9.55228 7 10 6.55228 10 6C10 5.44772 9.55228 5 9 5ZM12 5C11.4477 5 11 5.44772 11 6C11 6.55228 11.4477 7 12 7C12.5523 7 13 6.55228 13 6C13 5.44772 12.5523 5 12 5Z" fill="#555555"/>
</svg>
