<?xml version="1.0" encoding="UTF-8"?>
<svg id="Layer_1" xmlns="http://www.w3.org/2000/svg" version="1.1" viewBox="0 0 410 410">
  <!-- Generator: Adobe Illustrator 30.4.0, SVG Export Plug-In . SVG Version: 2.1.4 Build 226)  -->
  <defs>
    <style>
      .st0 {
        fill: #111;
      }

      .st1 {
        fill: #000001;
      }

      .st2 {
        fill: #fff;
      }
    </style>
  </defs>
  <path class="st1" d="M289.4,16.5c.9,0,1.8.1,2.6.2-.9,0-1.8-.1-2.6-.2Z"/>
  <path class="st1" d="M289.3,16.5c-2.4-.2-4.8-.2-7.3-.2-26.3,0-50.4,9.1-69.4,24.3.4-.3.8-.5,1.2-.9,20.6-16,46.9-25,75.5-23.2Z"/>
  <path class="st1" d="M292.7,16.8c.6,0,1.2.1,1.8.2-.6,0-1.2-.1-1.8-.2Z"/>
  <path class="st1" d="M296.1,17.2c0,0,.1,0,.2,0,0,0-.1,0-.2,0Z"/>
  <path class="st1" d="M196.7,40.2c-16.3-12.8-36.3-21.2-58.1-23.3,21.6,2.1,41.3,10.3,57.5,22.9.2.2.4.3.6.5Z"/>
  <path class="st1" d="M135.6,16.6c-2.6-.2-5.2-.3-7.8-.3-5.4,0-10.6.4-15.8,1.1,8-1.1,15.9-1.4,23.6-.8Z"/>
  <path class="st1" d="M135.6,16.6c1,0,2,.1,2.9.2-1,0-1.9-.2-2.9-.2Z"/>
  <path class="st1" d="M21.2,95c.2-.7.5-1.4.7-2.2-.2.7-.5,1.4-.7,2.2Z"/>
  <path class="st1" d="M18.1,108.1c.7-4.1,1.6-8.1,2.8-12.1-3,10.1-4.6,20.7-4.6,31.8,0,26.3,9.1,50.4,24.3,69.4-.3-.4-.6-.8-.9-1.2-18.2-23.6-27.3-54.7-21.6-87.9Z"/>
  <path class="st1" d="M110.5,17.6c.1,0,.3,0,.4,0-.1,0-.3,0-.4,0Z"/>
  <path class="st1" d="M215.3,371s0,0,0,0c0,0,0,0,0,0Z"/>
  <path class="st1" d="M19.5,308.5c-.2-.8-.4-1.5-.5-2.3.2.8.4,1.5.5,2.3Z"/>
  <path class="st1" d="M39.7,213.7c.5-.6.9-1.3,1.3-1.9-15.4,19.1-24.7,43.5-24.7,69.9s.9,16.2,2.6,23.9c-.3-1.3-.5-2.7-.8-4-5.8-33.3,3.3-64.3,21.6-87.9Z"/>
  <g>
    <path class="st2" d="M314.9,234.4c-3.1-2.5-5.4-3.8-5.8-4.1h0s0,0,0,0l-77.5-48.1-4.8-3-54.9-34.1-54.6-33.9h-.2c-3.4-2.1-5.5-4.8-6.3-7.9-.8-3.2-.1-6.7,1.8-9.9h0c1.8-3.1,4.6-5.2,8-6,3.4-.8,6.8-.3,9.8,1.4l2.4,1.5h.5c2.7,1.4,7.6,3.9,8.9,4.5l29.3,18.4,64.8,40.7,16.2,10.2c5.2,3.3,10.8,5.6,16.7,6.9,3.6.8,7.4,1.2,11.2,1.2s8.3-.5,12.2-1.5c23-5.5,40.2-26.3,40.2-51s-23.5-52.4-52.5-52.4-16.8,2.1-24,5.8c-13.2,7.5-20.1,22.2-19,33.8.1,1.2.3,2.4.6,3.6,1.4,5.2,4.7,9.4,10.2,11.5,0-.7,0-1.4,0-2.2,0-17.7,14.4-32.1,32.1-32.1s32.1,14.4,32.1,32.1-14.4,32.2-32.1,32.2-12-1.7-17.1-4.9l-15.5-9.8s0,0,0-.1l-.2-.2s0,0,0,0l-8.2-5.2h0c0,0,0,0,0,0h0s0,0,0,0l-11.4-7.2c0,0,0,.1,0,.2l-51.6-32.4-23.1-14.5c-.1,0-.3-.2-.5-.3h0c-1-.6-2.8-1.5-6.6-3.5-2.7-1.3-4.4-2.2-5.7-2.8-7.5-4.4-16.3-5.6-24.7-3.5-8.7,2.2-15.9,7.6-20.5,15.2-4.8,7.9-6.2,16.9-4.1,25.3,2.1,8.3,7.6,15.5,15.6,20.3l74.1,46.1,31.9,19.8,3.1,1.9,69.1,43,13.4,8.4h0c23,15.1,30.3,27.1,31.6,35.6,11.1-23.9-5.6-41.3-15.1-48.8Z"/>
    <path class="st2" d="M302.2,280.7l-72.9-45.3-32.4-20.1-3-1.9-69.4-43.2-14-8.7h0c-23-15.1-30.2-27.1-31.5-35.6-11.3,24.3,6.3,42,15.7,49.2,2.8,2.2,4.9,3.4,5.2,3.7,0,0,0,0,0,0l78.1,48.5,5,3.1,55.1,34.2,53.5,33.3h.2c3.4,2.1,5.5,4.8,6.3,7.9.8,3.2.1,6.7-1.8,9.9h0c-1.8,3.1-4.6,5.2-8,6-3.4.8-6.8.3-9.8-1.4l-2.4-1.5h-.5c-2.7-1.4-7.6-3.9-8.9-4.5l-28.3-17.8-64.8-40.8-17.1-10.8c-4.8-3-10.1-5.3-15.5-6.6-4-1-8.2-1.5-12.4-1.5s-8.7.6-12.8,1.6c-22.7,5.7-39.6,26.4-39.6,50.9s23.5,52.5,52.5,52.5,17.4-2.3,24.8-6.3c20.4-12.3,25.2-42,7.3-48.4,0,.7,0,1.4,0,2.2,0,17.7-14.4,32.1-32.1,32.1s-32.2-14.4-32.2-32.1,14.4-32.1,32.2-32.1,12,1.7,17.1,4.9l15.5,9.8s0,0,0,0l.2.2s0,0,0,0l8.3,5.2h0s1,.6,1,.6l10.4,6.5s0,0,0,0l52.5,33,22.2,14c.1,0,.3.2.5.3h0c1,.6,2.8,1.5,6.6,3.5,2.7,1.3,4.4,2.2,5.7,2.8,5.1,3,10.8,4.5,16.5,4.5s5.5-.3,8.2-1c8.7-2.2,15.9-7.6,20.5-15.2,4.8-7.9,6.2-16.9,4.1-25.3-2.1-8.3-7.6-15.5-15.6-20.3Z"/>
  </g>
  <path class="st0" d="M370.4,196c18.3-23.6,27.4-54.6,21.6-87.9h-.2c-7.8-45.6-44.6-82.3-90.1-90.1-1.8-.3-3.6-.6-5.4-.8,0,0-.1,0-.2,0-.6,0-1.1-.1-1.7-.2-.6,0-1.2-.1-1.8-.2-.2,0-.4,0-.7,0-.9,0-1.8-.1-2.6-.2,0,0,0,0-.1,0-28.5-1.8-54.8,7.2-75.5,23.2-.4.3-.8.6-1.2.9-4.9,3.1-11.1,2.9-15.8-.4-.2-.1-.4-.3-.6-.5-16.2-12.6-35.9-20.8-57.5-22.9,0,0,0,0,0,0-1,0-1.9-.2-2.9-.2,0,0,0,0,0,0-7.7-.5-15.6-.3-23.6.8-.4,0-.7,0-1.1.2-.1,0-.3,0-.4,0-.8.1-1.6.2-2.3.4-40.4,6.9-73.8,36.5-86.3,74.9-.2.7-.5,1.4-.7,2.2-.1.3-.2.7-.3,1-1.2,3.9-2.1,8-2.8,12.1-5.7,33.2,3.4,64.3,21.6,87.9.3.4.6.8.9,1.2,2.8,4.4,2.9,9.9.4,14.5-.4.7-.8,1.3-1.3,1.9-18.3,23.6-27.4,54.6-21.6,87.9.2,1.3.5,2.7.8,4,0,.2,0,.4.1.6.2.8.4,1.5.5,2.3,10.2,42.4,45.5,75.8,88.8,83.2,33.2,5.7,64.3-3.4,87.9-21.7,5.2-4.1,12.5-4.1,17.7,0,.5.4.9.7,1.4,1,0,0,0,0,0,0,23.4,17.6,53.9,26.2,86.5,20.7,45.6-7.8,82.3-44.5,90.2-90.1,5.7-33.2-3.4-64.3-21.6-87.9-4.1-5.2-4.1-12.4,0-17.7ZM180.9,284.5s0,0,0,0l-10.4-6.5-1-.6h0s-8.3-5.2-8.3-5.2c0,0,0,0,0,0l-.2-.2s0,0,0,0l-15.5-9.8c-5.1-3.2-11-4.9-17.1-4.9-17.7,0-32.2,14.4-32.2,32.1s14.4,32.1,32.2,32.1,32.1-14.4,32.1-32.1,0-1.5,0-2.2c17.8,6.4,13.1,36.1-7.3,48.4-7.4,4-15.9,6.3-24.8,6.3-28.9,0-52.5-23.5-52.5-52.5s16.9-45.1,39.6-50.9c4.1-1,8.4-1.6,12.8-1.6s8.3.5,12.4,1.5c5.5,1.3,10.7,3.5,15.5,6.6l17.1,10.8,64.8,40.8,28.3,17.8c1.2.6,6.1,3.1,8.9,4.5h.5l2.4,1.5c2.9,1.8,6.4,2.3,9.8,1.4,3.4-.8,6.2-3,8-5.9h0c2-3.3,2.6-6.9,1.8-10-.8-3.1-3-5.8-6.3-7.8h-.2c0-.1-53.5-33.4-53.5-33.4l-55.1-34.2-5-3.1-78.1-48.5s0,0,0,0c-.3-.2-2.4-1.5-5.2-3.7-9.4-7.3-26.9-24.9-15.7-49.2,1.3,8.5,8.6,20.4,31.5,35.6h0s14,8.7,14,8.7l69.4,43.2,3,1.9,32.4,20.1,72.9,45.3c7.9,4.7,13.5,11.9,15.6,20.3,2.1,8.4.6,17.4-4.1,25.3-4.5,7.6-11.8,13.1-20.5,15.2-2.7.7-5.5,1-8.2,1-5.8,0-11.5-1.5-16.5-4.5-1.3-.6-3.1-1.5-5.7-2.8-3.8-1.9-5.6-2.8-6.6-3.5h0c-.2-.1-.3-.2-.5-.3l-22.2-14-52.5-33ZM115.6,67.7c8.5-2.1,17.2-.9,24.7,3.5,1.3.6,3.1,1.5,5.7,2.8,3.8,1.9,5.6,2.8,6.6,3.5h0c.2.1.3.2.5.3l23.1,14.5,51.6,32.4c0,0,0-.1,0-.2l11.4,7.2h0s0,0,0,0h0s0,0,0,0l8.2,5.2s0,0,0,0l.2.2s0,0,0,.1l15.5,9.8c5.1,3.2,11,4.9,17.1,4.9,17.7,0,32.1-14.4,32.1-32.2s-14.4-32.1-32.1-32.1-32.1,14.4-32.1,32.1,0,1.5,0,2.2c-5.5-2-8.8-6.2-10.2-11.5-.3-1.1-.5-2.3-.6-3.6-1.1-11.5,5.8-26.2,19-33.8,7.2-3.7,15.4-5.8,24-5.8,28.9,0,52.5,23.5,52.5,52.4s-17.2,45.5-40.2,51c-3.9.9-8,1.5-12.2,1.5s-7.5-.4-11.2-1.2c-5.9-1.3-11.6-3.6-16.7-6.9l-16.2-10.2-64.8-40.7-29.3-18.4c-1.2-.6-6.1-3.1-8.9-4.5h-.5l-2.4-1.5c-2.9-1.8-6.4-2.3-9.8-1.4-3.4.8-6.2,3-8,5.9h0c-2,3.3-2.6,6.9-1.8,10,.8,3.1,3,5.8,6.3,7.8h.2c0,.1,54.6,34,54.6,34l54.9,34.1,4.8,3,77.5,48.1h0c.3.1,2.7,1.5,5.8,4,9.5,7.5,26.2,24.9,15.1,48.8-1.3-8.5-8.6-20.5-31.6-35.6h0c0,0-13.4-8.3-13.4-8.3l-69.1-43-3.1-1.9-31.9-19.8-74.1-46.1c-7.9-4.7-13.5-11.9-15.6-20.3-2.1-8.4-.6-17.4,4.1-25.3,4.5-7.7,11.8-13.1,20.5-15.2Z"/>
</svg>