<?xml version="1.0" encoding="UTF-8"?>
<svg id="Layer_1" xmlns="http://www.w3.org/2000/svg" version="1.1" viewBox="0 0 1998.1 436.6">
  <!-- Generator: Adobe Illustrator 30.3.0, SVG Export Plug-In . SVG Version: 2.1.3 Build 182)  -->
  <defs>
    <style>
      .st0 {
        fill: #777;
      }

      .st1 {
        fill: none;
        stroke: #000001;
        stroke-miterlimit: 10;
        stroke-width: 27.3px;
      }

      .st2 {
        fill: #000001;
      }

      .st3 {
        fill: #bfbfbf;
      }
    </style>
  </defs>
  <path class="st3" d="M415.6,125.5c-7.8-45.6-44.6-82.3-90.2-90.1-33.3-5.7-64.3,3.4-87.9,21.7-5.2,4.1-12.5,4.1-17.7,0-23.6-18.3-54.7-27.4-87.9-21.7-45.6,7.8-82.3,44.5-90.2,90.1-5.7,33.2,3.4,64.3,21.7,87.9,4.1,5.2,4.1,12.4,0,17.7-18.3,23.6-27.4,54.7-21.6,87.9,7.9,45.6,44.6,82.3,90.2,90.1,33.3,5.7,64.3-3.4,87.9-21.7,5.2-4.1,12.5-4.1,17.7,0,23.6,18.3,54.6,27.4,87.9,21.7,45.6-7.8,82.3-44.5,90.2-90.1,5.7-33.3-3.4-64.3-21.6-87.9-4.1-5.2-4.1-12.4,0-17.7,18.3-23.6,27.4-54.6,21.7-87.9Z"/>
  <g>
    <path class="st3" d="M498.9,253.2l28.7-1.8c3.4,25.6,18.9,39.8,46.3,39.8s37.5-9.1,37.5-26.4-8-25.1-48.6-34.9c-44-10.6-60-23.3-60-52s24-53.3,63.6-53.3,65.9,25.1,70.1,59.7l-28.4,1.6c-2.8-21.2-16.8-35.9-42.2-35.9s-34.4,10.9-34.4,26.9,9.1,22,44.7,30.5c47.8,11.1,63.9,29,63.9,55.9s-27.2,53.3-66.7,53.3-71.4-25.6-74.5-63.4Z"/>
    <path class="st3" d="M659.3,128.8h27.4v65.9c7.2-15.8,22.2-23,40.3-23,30,0,46.3,21.5,46.3,52.2v88.4h-27.4v-81.2c0-24.6-8.5-36.5-26.1-36.5s-33.1,12.9-33.1,37v80.7h-27.4v-183.6Z"/>
    <path class="st3" d="M791.1,278c0-23.5,14-36.2,44-42.2l47.3-9c0-21.2-9.8-31.8-29.5-31.8s-27.4,8-31,23l-28.4-1.8c5.2-27.4,26.6-44.5,59.5-44.5s56.9,20.9,56.9,56.6v53.5c0,6.7,2.3,8.8,7.5,8.8h4.9v21.7c-1.8.5-6.2.8-10.1.8-15.8,0-25.1-5.9-27.4-22-7,14.5-25.1,24.3-46.6,24.3s-47.1-13.7-47.1-37.5ZM882.4,256.3v-8.8l-40.1,7.8c-16.6,3.1-22.8,9.6-22.8,20.2s8.5,18.4,23.3,18.4c24.6,0,39.6-15.5,39.6-37.5Z"/>
    <path class="st3" d="M940.2,287.9l83.3-90.5h-80.4v-22.5h111.7v24.6l-83.5,90.5h85.6v22.5h-116.6v-24.6Z"/>
    <path class="st3" d="M1076.9,127.5h28.7v27.4h-28.7v-27.4ZM1077.4,174.9h27.4v137.6h-27.4v-137.6Z"/>
    <path class="st3" d="M1185.6,128.8h24.3v22.5h-20.7c-10.9,0-15.8,5.9-15.8,16.3v9.1h34.4v22.2h-34.4v113.5h-27.4v-113.5h-19.1v-22.2h19.1v-10.6c0-22.8,12.4-37.2,39.6-37.2Z"/>
    <path class="st0" d="M1288.8,128.8h35.7l66.2,183.6h-30l-16.6-47.8h-75l-16.8,47.8h-29.7l66.2-183.6ZM1335.4,239.3l-28.7-83.8-28.7,83.8h57.4Z"/>
    <path class="st0" d="M1390.6,243.6c0-44,22.2-71.9,57.7-71.9s34.7,8.3,41.9,22.5v-65.4h27.4v183.6h-25.3l-.8-20.7c-7.8,15-24.1,23.8-43.2,23.8-35.4,0-57.7-27.7-57.7-71.9ZM1490.1,243.6c0-30.5-12.4-48.1-34.7-48.1s-36.5,18.1-36.5,48.1,14.5,48.1,36.5,48.1,34.7-17.8,34.7-48.1Z"/>
    <path class="st0" d="M1534.4,278c0-23.5,14-36.2,44-42.2l47.3-9c0-21.2-9.8-31.8-29.5-31.8s-27.4,8-31,23l-28.4-1.8c5.2-27.4,26.6-44.5,59.5-44.5s56.9,20.9,56.9,56.6v53.5c0,6.7,2.3,8.8,7.5,8.8h4.9v21.7c-1.8.5-6.2.8-10.1.8-15.8,0-25.1-5.9-27.4-22-7,14.5-25.1,24.3-46.6,24.3s-47.1-13.7-47.1-37.5ZM1625.7,256.3v-8.8l-40.1,7.8c-16.6,3.1-22.8,9.6-22.8,20.2s8.5,18.4,23.3,18.4c24.6,0,39.6-15.5,39.6-37.5Z"/>
    <path class="st0" d="M1684.4,174.9h25.1l.5,23.8c6.7-16.8,20.9-26.9,38.3-26.9s34.7,10.6,40.6,28.4c6.2-18.4,20.2-28.4,39.8-28.4,29,0,45.5,18.6,45.5,52.2v88.4h-27.4v-81.7c0-23.8-8.5-35.9-26.1-35.9s-28.4,13.7-28.4,37v80.7h-26.1v-80.7c0-23.3-7.2-37-25.6-37s-28.7,14-28.7,37v80.7h-27.4v-137.6Z"/>
  </g>
  <g>
    <path class="st1" d="M329.6,257.1l-195.8-121.7c-12.5-7.4-14.9-21.2-8.2-32.4,6.7-11.2,21.2-14.9,32.4-8.2.2,0,11.8,5.9,12,6,0,0,112.8,71,112.8,71,6.7,4.2,14.5,6.6,23,6.6,23.8,0,43.1-19.3,43.1-43.1s-19.3-43.1-43.1-43.1-43.1,19.3-43.1,43.1.6,8.3,1.7,12.2"/>
    <path class="st2" d="M336.8,245.5c1.4.9,34.6,24.4,19.6,56.8-1.4-8.7-10.5-18.1-34.1-33.7l14.5-23.1Z"/>
    <path class="st3" d="M290.4,80.5c-28.4,8.1-38.6,52.8-13.5,60l13.1,19.8-41.3-26.1-10-35.3,51.8-18.4Z"/>
  </g>
  <g>
    <path class="st1" d="M126.9,186.9l195.8,121.7c12.5,7.4,14.9,21.2,8.2,32.4-6.7,11.2-21.2,14.9-32.4,8.2-.2,0-11.8-5.9-12-6,0,0-112.8-71-112.8-71-6.7-4.2-14.5-6.6-23-6.6-23.8,0-43.1,19.3-43.1,43.1s19.3,43.1,43.1,43.1,43.1-19.3,43.1-43.1-.6-8.3-1.7-12.2"/>
    <path class="st2" d="M119.7,198.5c-1.4-.9-34.6-24.4-19.6-56.8,1.4,8.7,10.5,18.1,34.1,33.7l-14.5,23.1Z"/>
    <path class="st3" d="M166.2,363.5c28.4-8.1,38.6-52.8,13.5-60l-13.1-19.8,41.3,26.1,10,35.3-51.8,18.4Z"/>
  </g>
</svg>