<svg width="24" height="24" viewBox="0 0 24 24" fill="none" xmlns="http://www.w3.org/2000/svg">
<path d="M19 21.75C20.5188 21.75 21.75 20.5188 21.75 19V5C21.75 3.48122 20.5188 2.25 19 2.25H5C3.48122 2.25 2.25 3.48122 2.25 5V19C2.25 20.5188 3.48122 21.75 5 21.75H19ZM7 7.75C6.44772 7.75 6 7.30229 6 6.75C6 6.19772 6.44771 5.75 7 5.75C7.55228 5.75 8 6.19772 8 6.75C8 7.30229 7.55228 7.75 7 7.75ZM7 18C6.44772 18 6 17.5523 6 17V10C6 9.44771 6.44772 9 7 9C7.55228 9 8 9.44771 8 10V17C8 17.5523 7.55228 18 7 18ZM17 18C16.4477 18 16 17.5523 16 17V13C16 11.8954 15.1046 11 14 11C12.8954 11 12 11.8954 12 13V17C12 17.5523 11.5523 18 11 18C10.4477 18 10 17.5523 10 17V10C10 9.44771 10.4477 9 11 9C11.4055 9 11.7532 9.24198 11.9102 9.58887C12.5184 9.21545 13.234 9 14 9C16.2091 9 18 10.7909 18 13V17C18 17.5523 17.5523 18 17 18Z" fill="#111111"/>
</svg>
